#!OML:ASF E:/inclinewalkrobotboard/Project1/Captureday1/Session1/subject1.ASF
:FULLY-SPECIFIED
:DEGREES
51
root 0 0 0 79.39689175919916 -31.515105686590402 -42.44551170754796
lowerback -9.593138874896834 7.260262055363956 1.3771586574727637
upperback -19.973112971439733 9.161145686469188 0.2995598329755276
thorax -16.19454683575764 4.276321939116409 -0.3685172091278073
lowerneck -9.869050462369898 12.8204037215114 8.187846272648644
upperneck 10.11826129135019 16.131942197012087 3.0661990765078677
head 4.630529157850745 8.203189495466756 0.9215025696451923
rclavicle -3.74969780989258E-15 -5.9228170542327965E-15
rhumerus 161.46662851961455 -42.82970747755869 -138.08180170489413
rradius 7.708770473722346
rwrist 99.62706930006115
rhand -1.2923996067685715 -1.7483854931945064
rfingers 7.125020000000006
rthumb 24.354942545799595 -30.130397469215197
lclavicle -3.3438847950073886E-15 -7.209525639976049E-15
lhumerus 5.545176748031222 14.062200300722392 -5.838910785367105
lradius 21.044578319886828
lwrist -37.97812063590649
lhand 2.0415248372263193 35.40442212081685
lfingers 7.125020000000028
lthumb 27.520407721933797 63.380933544736806
rfemur 193.28841654895103 -184.70006917913045 -169.93853604489678
rtibia 40.13665499521088
rfoot 36.370509081984615 -40.936990775846894
rtoes 29.61356415318419
lfemur -71.07392851929414 20.944059603243307 -29.617460520063286
ltibia 51.72005546306786
lfoot -43.3525766105862 31.90030932650824
ltoes 24.77073871082805
52
root 0 0 0 84.03860666655169 -27.629175551204654 -53.5955923039246
lowerback -10.538728481475133 9.163073900849984 9.877326180201063
upperback -19.566984948021037 11.78608892586297 1.979155829674771
thorax -14.615108241741245 4.566508315193226 -3.1151185156475734
lowerneck -10.104183291476819 12.053871349984655 7.257410279681963
upperneck 10.843365207355404 14.75826554731877 5.283752359830342
head 4.9821646891199425 7.751565342846163 1.6141015370407308
rclavicle -1.1629446078368579E-15 -9.5941302898539E-15
rhumerus 108.3499723713702 -47.5152824378212 -86.2786297864797
rradius 12.242776274739876
rwrist 66.79046536764594
rhand 1.2188251028216386 -0.9991677751346586
rfingers 7.125020000000009
rthumb 26.751920593404343 -28.958070381099205
lclavicle -2.682322756421997E-15 -1.1117073664325398E-14
lhumerus 5.7338392944960965 14.455465464458392 -7.29999483589917
lradius 20.760934414518708
lwrist -38.371598425991664
lhand 2.4951812089334986 35.27433855679695
lfingers 7.1250200000000214
lthumb 27.957567332670088 63.17069025971636
rfemur 198.8630352609266 -183.06151751920825 -171.1298983485363
rtibia 46.23940080424538
rfoot 45.823536294754476 -38.55563065765464
rtoes 25.355400748377313
lfemur -74.83102817664579 27.45278478494849 -6.706788497847555
ltibia 41.68241849883805
lfoot -59.259528195864334 27.604977119022635
ltoes 43.52617059360439
53
root 0 0 0 85.65262189686396 -31.02845010071953 -56.35736125203367
lowerback -11.330479538254874 9.587740455596567 12.325456592091571
upperback -19.63526904207798 12.216256527954691 2.4458476052455493
thorax -14.077737956695557 4.464734628268825 -3.774779314975971
lowerneck -9.950990328651226 11.701852006367089 6.844786760673205
upperneck 11.178968810429359 13.939988326918426 7.112426477944244
head 5.162783532864416 7.505519204518159 2.115199221284959
rclavicle 3.634619665039779E-15 -6.453019735819523E-15
rhumerus 63.01223045218233 -51.00887538015165 -41.75338404046852
rradius 16.611450090231333
rwrist 40.311712854136104
rhand 3.188928662875526 -0.07821756544364256
rfingers 7.125020000000019
rthumb 28.635224725279635 -27.704242686953123
lclavicle -1.8558158282377686E-15 -8.853341754226292E-15
lhumerus 4.109153504437801 14.63129410476179 -6.40213100861537
lradius 20.47118443425439
lwrist -38.90561390445347
lhand 2.18995039957956 34.9119733932787
lfingers 7.125020000000024
lthumb 27.669552508955903 62.86114264779799
rfemur 203.35310356196038 -182.24124113736187 -172.58422469356321
rtibia 50.96770997584559
rfoot 52.08676854886939 -36.00979576111736
rtoes 21.203412770399563
lfemur -69.47211773451309 27.257153862597292 8.683972413276436
ltibia 32.2343874773594
lfoot -69.4758149661245 21.936030012855483
ltoes 55.46922219043394
54
root 0 0 0 86.2579837520303 -33.19577341033812 -56.85058474182608
lowerback -11.667354953084446 9.675345650977823 13.240423300908741
upperback -20.035620447324014 12.283789856528394 2.725725962487798
thorax -14.280823655009108 4.374793816285546 -3.8730206189456293
lowerneck -9.706272193486685 11.655659252807013 6.5171111309159855
upperneck 10.824711725906047 13.786859264490431 8.14983896164853
head 4.9807092646798115 7.479984685580723 2.4454093654039006
rclavicle 6.434067080805994E-15 2.8384871365273E-16
rhumerus 55.122815631044105 -51.23652790266959 -32.48306018552704
rradius 17.61730351922285
rwrist 38.79727379128421
rhand 3.042385888502854 0.18109199284112165
rfingers 7.125020000000028
rthumb 28.500742570397584 -27.503925493562704
lclavicle -9.782984279666024E-16 -3.8508005877717425E-15
lhumerus 0.9615427587214853 14.586248939667534 -4.410188351467802
lradius 20.433429466890843
lwrist -39.35285075884997
lhand 1.457358501688309 34.54196534896832
lfingers 7.125020000000029
lthumb 26.96996838600419 62.61083813560569
rfemur 206.17308943747923 -182.61479863596503 -174.1063382220724
rtibia 53.68438646895187
rfoot 54.97746817050664 -33.39978888327848
rtoes 18.664346351999182
lfemur -61.88384923805572 24.948638192356356 15.95632994193408
ltibia 27.163945735801864
lfoot -71.16955384480276 16.567056898994448
ltoes 59.21710643832108
55
root 0 0 0 86.18660082731468 -33.55738802619802 -56.71114667118951
lowerback -11.669529717998403 9.696458364525329 13.625380683698186
upperback -20.29568963192699 12.299845656793877 2.8758538099046245
thorax -14.554621432513024 4.323528361930935 -3.85957418056294
lowerneck -9.477340028367117 11.718780929408958 6.378922930390329
upperneck 10.593097645793247 13.874351166370099 8.582027464166561
head 4.832328986775378 7.531767495810504 2.5911672698057524
rclavicle 8.606986416877154E-15 5.0328913895445955E-15
rhumerus 50.32246353174018 -50.8514584814925 -27.51574592165428
rradius 18.402315101486003
rwrist 39.28003374057238
rhand 2.5390230720202913 0.6036126378330842
rfingers 7.125020000000037
rthumb 28.022762018348327 -27.18575442850252
lclavicle 1.6992274793881286E-16 -3.265989662480324E-16
lhumerus -2.141283649673386 14.292949343450637 -3.0797104020537063
lradius 20.597863078122103
lwrist -39.408332807521006
lhand 0.856016008557986 34.3615049837744
lfingers 7.125020000000034
lthumb 26.392979789002148 62.51733956466596
rfemur 207.47389883298652 -183.04274734955192 -174.84469096887256
rtibia 55.36168384148125
rfoot 56.85356955196531 -31.559149066443947
rtoes 17.406375646112902
lfemur -57.82177863227687 24.914096033621114 19.04374069738985
ltibia 24.841348982192144
lfoot -69.41202550717182 12.837764956565078
ltoes 60.14844306646143
56
root 0 0 0 86.0041844789366 -33.47222650087863 -56.49254592062751
lowerback -11.592138952345223 9.701790500652622 13.861409188187984
upperback -20.49021086202613 12.30102476273185 2.9736102003143507
thorax -14.80873533386099 4.284501832950577 -3.837947326908113
lowerneck -9.272384818449462 11.807763893987046 6.316108216919424
upperneck 10.420417773351966 14.011544662042578 8.827419014836313
head 4.712250442582795 7.599608724976386 2.675595981342154
rclavicle 9.77032036182261E-15 7.643922439279328E-15
rhumerus 44.567658036788835 -50.2860899767323 -22.815363513528656
rradius 19.24985437159704
rwrist 39.90477538630878
rhand 1.7694046945296171 1.3081862437645508
rfingers 7.125020000000051
rthumb 27.287144433848567 -26.62891477163071
lclavicle 9.871908801907837E-16 1.5719494312855007E-15
lhumerus -4.896016343859669 13.759525652600292 -2.8054034032785253
lradius 20.830751969038175
lwrist -39.12090611201093
lhand 0.5134916881591887 34.35205112688551
lfingers 7.125020000000037
lthumb 26.059614460359043 62.5313305433439
rfemur 207.65515611488073 -183.2709549362259 -175.0261980725029
rtibia 56.544408604168936
rfoot 58.16224772558817 -30.480142005848613
rtoes 16.342104302913366
lfemur -55.39230643834785 25.34836194614206 20.64281103202803
ltibia 23.529265282780237
lfoot -67.43954966192783 10.188945111114421
ltoes 60.41749699771298
